<svg xmlns="http://www.w3.org/2000/svg" data-name="Layer 1" viewBox="0 0 512 512" id="business-management"><path d="M112.123 158.314l26.437-2.548a7 7 0 0 0 6.17-5.488 114.739 114.739 0 0 1 16.015-37.949 7 7 0 0 0-.491-8.26L143.4 83.713 165.57 61.539 185.926 78.4a7 7 0 0 0 8.348.433 111.29 111.29 0 0 1 37.862-15.957 7 7 0 0 0 5.489-6.17l2.548-26.438h29.9L272.623 56.7a7 7 0 0 0 5.488 6.17A111.273 111.273 0 0 1 315.972 78.83a7 7 0 0 0 8.348-.433l20.356-16.858L366.85 83.713l-16.858 20.356a7 7 0 0 0-.49 8.26 114.751 114.751 0 0 1 16.015 37.949 7 7 0 0 0 6.17 5.488l26.438 2.548v10.45h14V151.956a7 7 0 0 0-6.328-6.968l-27.792-2.679a128.6 128.6 0 0 0-14.021-33.187L381.7 87.732a7 7 0 0 0-.441-9.415L350.071 47.13a7 7 0 0 0-9.415-.441L319.31 64.367a125.863 125.863 0 0 0-33.23-13.986L283.4 22.592a7 7 0 0 0-6.968-6.328H233.816a7 7 0 0 0-6.968 6.328L224.17 50.381a125.9 125.9 0 0 0-33.232 13.986L169.592 46.689a7 7 0 0 0-9.415.442L128.99 78.319a7 7 0 0 0-.441 9.415l17.713 21.39a128.592 128.592 0 0 0-14.02 33.187l-27.791 2.679a7 7 0 0 0-6.329 6.968v17.33h14V158.314zM256 213.275a39.188 39.188 0 0 0-39.143 39.143v18.458a39.143 39.143 0 0 0 78.286 0V252.418A39.187 39.187 0 0 0 256 213.275z"></path><path d="M337.723 174.063a82 82 0 1 0-132.957 64.268 53.13 53.13 0 0 1 102.359-.375A81.551 81.551 0 0 0 337.723 174.063zM429.725 284.708a7 7 0 0 0-6.6-9.261l-30.2-.107H392.9a7 7 0 0 0-6.629 9.25l7.247 21.349a7 7 0 0 0 6.629 4.75h15.7a7 7 0 0 0 6.625-4.739zM377.767 210.375v14.493a29.233 29.233 0 1 0 58.466 0V210.375a29.233 29.233 0 1 0-58.466 0zM127.725 284.708a7 7 0 0 0-6.6-9.261l-30.2-.107H90.9a7 7 0 0 0-6.629 9.25l7.247 21.349a7 7 0 0 0 6.628 4.75h15.7a7 7 0 0 0 6.625-4.739zM105 254.1a29.266 29.266 0 0 0 29.234-29.233V210.376a29.234 29.234 0 0 0-58.468 0v14.493A29.266 29.266 0 0 0 105 254.1zM283.013 340.53a7 7 0 0 0-5.937-3.33l-38.457-.137h-.025a7 7 0 0 0-6.26 10.131l10 20a7 7 0 0 0 6.209 3.869L267 371.2h.052a7 7 0 0 0 6.261-3.869l10-20A7 7 0 0 0 283.013 340.53zM315.854 347.723H305.208L277.59 460.562l.061 1.323 1.161 17.39h78.433V389.116A41.439 41.439 0 0 0 315.854 347.723zM183 335.313V317.718a31.035 31.035 0 0 0-31-31h-7.1l-25.288 69.317 3.745 46.683h17.4v-13.6A55.482 55.482 0 0 1 183 335.313zM454 286.717h-7.1l-25.288 69.318 3.745 46.682H485v-85A31.035 31.035 0 0 0 454 286.717z"></path><polygon points="403.962 422.564 408.53 425.572 412.906 422.618 408.433 366.848 403.962 422.564"></polygon><path d="M360 286.717a31.034 31.034 0 0 0-31 31v17.6a55.481 55.481 0 0 1 42.245 53.8v13.6H391.51l3.744-46.667-27.978-69.333zM263.67 462.6l-3.305-71.453-5.145-.038-3.634 66.512.236.862-.288.079-1.744 31.917 8.032 5.253 7.711-5.169-1.856-27.82C263.675 462.7 263.672 462.651 263.67 462.6zM196.147 347.723a41.439 41.439 0 0 0-41.392 41.393v90.159h81.627l1.1-20.144L206.946 347.724h-10.8zM58 286.717a31.035 31.035 0 0 0-31 31v85H89.509l3.745-46.667L65.276 286.717z"></path><polygon points="101.962 422.563 106.531 425.572 110.906 422.618 106.432 366.846 101.962 422.563"></polygon></svg>