<svg xmlns="http://www.w3.org/2000/svg" width="32" height="32" id="computer"><path style="line-height:normal;text-indent:0;text-align:start;text-decoration-line:none;text-decoration-style:solid;text-decoration-color:#000;text-transform:none;block-progression:tb;white-space:normal;isolation:auto;mix-blend-mode:normal;solid-color:#000;solid-opacity:1" d="M1.5 10a.5.5 0 0 0-.5.5V19H.496a.5.5 0 0 0-.5.5v2.996a.5.5 0 0 0 .5.5H17.5a.5.5 0 0 0 .5-.5V19.5a.5.5 0 0 0-.5-.5H17v-8.5a.5.5 0 0 0-.5-.5h-15zm.5 1h14v8H2v-8zm22.5 0a.5.5 0 0 0-.5.5v11a.5.5 0 0 0 .5.5h6a.5.5 0 0 0 .5-.5v-11a.5.5 0 0 0-.5-.5h-6zm.5 1h5v1h-5v-1zm-4.572 1.404a.5.5 0 0 0-.383.176l-.914 1.041a.5.5 0 0 0 0 .66l.908 1.035a.5.5 0 1 0 .752-.66l-.182-.207h1.899a.5.5 0 1 0 0-1h-1.895l.184-.209a.5.5 0 0 0-.37-.836zM25 14h5v6h-5v-6zm-3.424 2.404a.5.5 0 0 0-.353.836l.18.205h-1.897a.5.5 0 1 0 0 1h1.898l-.185.211a.5.5 0 1 0 .752.66l.912-1.04a.5.5 0 0 0 0-.66l-.908-1.036a.5.5 0 0 0-.399-.176zM.996 20H6.965a.5.5 0 0 0 .486.639h3.092a.5.5 0 0 0 .488-.639H17v1.996H.997V20zM25 21h5v1h-5v-1z" color="#000" enable-background="accumulate" font-family="sans-serif" font-weight="400" overflow="visible"></path></svg>